<?xml version="1.0" encoding="utf-8"?>
<!-- Generator: Adobe Illustrator 23.1.0, SVG Export Plug-In . SVG Version: 6.00 Build 0)  -->
<svg version="1.1" id="Layer_1" xmlns="http://www.w3.org/2000/svg" xmlns:xlink="http://www.w3.org/1999/xlink" x="0px" y="0px"
	 viewBox="0 0 170 30" style="enable-background:new 0 0 170 30;" xml:space="preserve">
<path fill="#000" d="M103.39,1.27c5.92,0,10.7,4.66,10.7,10.7v14.1h-7.3V11.85c0-1.76-1.39-3.27-3.27-3.27c-1.89,0-3.27,1.39-3.27,3.27v14.1
	h-7.3v-14.1C92.68,5.93,97.47,1.27,103.39,1.27z"/>
<path fill="#000" d="M117.36,1.27c5.92,0,10.7,4.79,10.7,10.7v14.1h-7.3V11.85c0-1.76-1.51-3.27-3.27-3.27c-0.13,0-0.25,0-0.5,0
	c-0.63-2.52-1.89-4.79-3.65-6.55C114.59,1.52,115.98,1.27,117.36,1.27z"/>
<rect fill="#000" x="134.74" y="3.28" width="7.3" height="22.79"/>
<path fill="#000" d="M157.91,20.41v7.68c-5.16-0.76-9.19-5.16-9.19-10.58V3.28h7.3v14.23C156.15,18.77,156.9,19.78,157.91,20.41z"/>
<path fill="#000" d="M160.81,27.97v-7.56c1.13-0.5,1.76-1.64,1.76-2.9V3.28H170v14.23C170,22.8,166.1,27.34,160.81,27.97z"/>
<path fill="#000" d="M10.7,1.27c5.92,0,10.58,4.66,10.58,10.7v14.1h-7.43V11.85c0-1.76-1.51-3.27-3.27-3.27c-1.76,0.13-3.15,1.51-3.15,3.27v14.1
	H0v-14.1C0,5.93,4.79,1.27,10.7,1.27z"/>
<path fill="#000" d="M24.68,1.27c5.92,0,10.7,4.79,10.7,10.7v14.1h-7.43V11.85c0-1.76-1.51-3.27-3.27-3.27c-0.13,0-0.25,0-0.38,0
	c-0.63-2.52-1.89-4.79-3.65-6.55C21.91,1.52,23.3,1.27,24.68,1.27z"/>
<rect fill="#000" x="41.93" y="3.28" width="7.3" height="22.79"/>
<path fill="#000" d="M65.23,20.41v7.68c-5.16-0.76-9.19-5.16-9.19-10.58V3.28h7.3v14.23C63.34,18.77,64.1,19.78,65.23,20.41z"/>
<path fill="#000" d="M68.13,27.97v-7.56c1.01-0.5,1.76-1.64,1.76-2.9V3.28h7.3v14.23C77.19,22.8,73.29,27.34,68.13,27.97z"/>
</svg>
